<svg xmlns="http://www.w3.org/2000/svg" aria-label="Robinhood Strategies Logo" height="100%" role="img" version="1.1" viewBox="0 0 302 33" class="css-diostm"><g clip-path="url(#clip0_7165_40285)"><path d="M59.6066 11.2031C55.24 11.2031 52.5645 14.0285 52.5645 18.9944C52.5645 23.9389 55.24 26.7643 59.6066 26.7643C64.016 26.7643 66.6273 23.9389 66.6273 18.9944C66.6273 14.0285 64.016 11.2031 59.6066 11.2031ZM59.6066 24.4954C56.8454 24.4954 55.7323 22.2265 55.7323 19.0158C55.7537 15.7623 56.8454 13.5148 59.6066 13.5148C62.3678 13.5148 63.4808 15.7623 63.4808 18.9944C63.4808 22.2051 62.3678 24.4954 59.6066 24.4954Z"/><path d="M47.8565 16.9407C47.6211 16.8551 47.5355 16.7053 47.5355 16.5126C47.5355 16.3628 47.6639 16.1916 47.8351 16.0846C49.5047 15.2712 50.5107 13.7514 50.5107 11.6538C50.5107 7.97218 48.199 5.74609 43.5542 5.74609H35.5488V26.4872H38.7167V17.9254H43.8324C46.2512 17.9254 47.0645 18.9528 47.1288 20.6223L47.4284 26.4872H50.5535L50.2324 20.4083C50.104 18.3963 49.312 17.4759 47.8565 16.9407ZM43.3401 15.4638H38.7167V8.27185H43.3401C45.7375 8.27185 47.2144 9.4491 47.2144 11.8678C47.2144 14.308 45.7375 15.4638 43.3401 15.4638Z"/><path d="M164.981 12.7019C164.981 13.0016 164.81 13.1514 164.596 13.1514C164.446 13.1514 164.318 13.0658 164.211 12.9374C164.211 12.9374 164.19 12.916 164.147 12.916C163.076 11.7815 161.921 11.2036 160.101 11.2036C156.869 11.2036 154.236 13.6866 154.236 18.9949C154.236 24.3033 156.869 26.7648 160.101 26.7648C161.985 26.7648 163.248 26.1441 164.297 24.9026L164.361 24.8384C164.489 24.71 164.596 24.6243 164.746 24.6243C164.96 24.6243 165.131 24.7742 165.131 25.0738V26.4866H167.978V5.03906H164.981V12.7019ZM161.236 24.4959C158.474 24.4959 157.361 22.227 157.361 19.0163C157.361 15.7842 158.474 13.5367 161.236 13.5367C164.018 13.5367 165.11 15.7842 165.11 19.0163C165.11 22.2056 164.018 24.4959 161.236 24.4959Z"/><path d="M99.6107 11.2031C97.4489 11.2031 96.186 12.1877 95.2442 13.4506C95.1158 13.6004 95.0087 13.7503 94.7947 13.7503C94.5806 13.7503 94.4094 13.6004 94.4094 13.3008V11.5028H91.584V26.4861H94.5806V18.2239C94.5806 15.5483 96.0148 13.6433 98.2622 13.6433C100.381 13.6433 101.43 14.8633 101.43 17.5175V26.5075H104.427V16.7255C104.427 13.2794 102.864 11.2031 99.6107 11.2031Z"/><path d="M115.622 11.2036C113.61 11.2036 112.305 12.1026 111.427 13.2371C111.299 13.3869 111.192 13.5367 110.978 13.5367C110.764 13.5367 110.592 13.3869 110.592 13.0872V5.03906H107.596V26.4866H110.592V18.2243C110.592 15.5488 112.026 13.6437 114.274 13.6437C116.393 13.6437 117.442 14.8638 117.442 17.518V26.508H120.439V16.726C120.439 13.2799 118.876 11.2036 115.622 11.2036Z"/><path d="M129.794 11.2031C125.428 11.2031 122.752 14.0285 122.752 18.9944C122.752 23.9389 125.428 26.7643 129.794 26.7643C134.203 26.7643 136.815 23.9389 136.815 18.9944C136.793 14.0285 134.203 11.2031 129.794 11.2031ZM129.794 24.4954C127.033 24.4954 125.92 22.2265 125.92 19.0158C125.92 15.7837 127.033 13.5362 129.794 13.5362C132.555 13.5362 133.668 15.7837 133.668 19.0158C133.647 22.2051 132.555 24.4954 129.794 24.4954Z"/><path d="M145.505 11.2031C141.138 11.2031 138.463 14.0285 138.463 18.9944C138.463 23.9389 141.138 26.7643 145.505 26.7643C149.914 26.7643 152.526 23.9389 152.526 18.9944C152.526 14.0285 149.914 11.2031 145.505 11.2031ZM145.505 24.4954C142.744 24.4954 141.631 22.2265 141.631 19.0158C141.631 15.7837 142.744 13.5362 145.505 13.5362C148.266 13.5362 149.379 15.7837 149.379 19.0158C149.379 22.2051 148.266 24.4954 145.505 24.4954Z"/><path d="M88.3306 11.5039H85.334V26.4872H88.3306V11.5039Z"/><path d="M88.4158 5.03906H85.2051V8.46381H88.4158V5.03906Z"/><path d="M76.9648 11.2036C75.1026 11.2036 73.9682 11.7815 72.9193 12.8732L72.8551 12.9374C72.7267 13.0658 72.6197 13.1514 72.4698 13.1514C72.2558 13.1514 72.0845 13.0016 72.0845 12.7019V5.03906H69.0879V26.4866H71.9133V25.0738C71.9133 24.7742 72.0845 24.6243 72.2986 24.6243C72.4484 24.6243 72.5769 24.71 72.6839 24.8384L72.7481 24.9026C73.8183 26.1227 75.0598 26.7648 76.9648 26.7648C80.1755 26.7648 82.8083 24.3033 82.8083 18.9949C82.8083 13.708 80.1755 11.2036 76.9648 11.2036ZM75.809 24.4959C73.0478 24.4959 71.9347 22.227 71.9347 19.0163C71.9347 15.7842 73.0478 13.5367 75.809 13.5367C78.5702 13.5367 79.6832 15.7842 79.6832 19.0163C79.6618 22.2056 78.5488 24.4959 75.809 24.4959Z"/><path d="M16.4978 7.24219H9.99081C9.75536 7.24219 9.54131 7.32781 9.39148 7.54185L4.72526 13.3211C4.04031 14.1773 3.86907 14.9693 3.86907 16.1037V22.0114C2.34934 26.271 1.38613 29.1606 0.679774 31.772C0.61556 31.9432 0.701179 32.0288 0.851012 32.0288H1.55737C1.68579 32.0288 1.79282 31.9646 1.85703 31.8576C7.1868 18.287 12.9875 11.5659 16.6263 7.54185C16.7761 7.37062 16.7119 7.24219 16.4978 7.24219Z"/><path d="M16.6921 0.585813C16.2854 0.778455 16.0714 0.821265 15.6433 1.20655C13.7169 2.85471 12.4326 4.16039 11.2125 5.44468C11.0627 5.59451 11.1269 5.74434 11.3409 5.74434H18.5543C19.2179 5.74434 19.6032 6.12963 19.6032 6.79317V14.927C19.6032 15.141 19.7744 15.2052 19.9028 15.0126L24.248 9.34033C24.9543 8.41993 25.1684 8.14167 25.361 6.85739C25.6179 4.97377 25.468 2.08414 24.3336 0.885479C23.3276 -0.184755 18.7898 -0.227565 16.6921 0.585813Z"/><path d="M17.7811 8.86844C13.3075 13.8557 9.81859 19.0999 6.58648 25.4143C6.50086 25.5855 6.60788 25.7139 6.80053 25.6497L13.4788 23.5949C14.228 23.4022 14.656 23.0597 15.0199 22.4604L17.9952 17.5587C18.0594 17.4303 18.0808 17.2805 18.0808 17.1735V8.99687C18.0808 8.78282 17.931 8.6972 17.7811 8.86844Z"/></g><path d="M295.541 26.4635C291.893 26.4635 290.025 24.5658 290.025 21.986H291.864C291.893 23.439 293.198 24.8623 295.541 24.8623C298.031 24.8623 299.218 23.6465 299.218 21.9564C299.218 20.6517 298.358 19.9104 296.875 19.6435L294.028 19.1098C291.538 18.6353 290.263 17.2417 290.263 15.255C290.263 12.616 292.427 10.9258 295.511 10.9258C298.209 10.9258 300.73 12.1712 300.73 15.1364H298.891C298.891 13.5648 297.409 12.527 295.481 12.527C293.495 12.527 292.101 13.5648 292.101 15.1957C292.101 16.1742 292.753 17.0638 294.473 17.3899L297.32 17.9237C299.84 18.3981 301.056 19.6138 301.056 21.8674C301.056 24.5064 299.069 26.4635 295.541 26.4635Z"/><path d="M281.719 26.4635C278.072 26.4635 275.463 23.9134 275.463 18.6946C275.463 13.6834 277.924 10.9258 281.808 10.9258C285.515 10.9258 287.828 13.3869 287.828 18.3388V19.0208H277.301C277.331 22.0453 278.458 24.8623 281.749 24.8623C284.24 24.8623 285.485 23.7355 285.723 22.0453H287.561C287.353 24.9216 284.952 26.4635 281.719 26.4635ZM285.545 17.4492C285.752 17.4492 285.93 17.3306 285.93 17.0341C285.93 14.2172 284.359 12.527 281.808 12.527C279.11 12.527 277.657 14.2765 277.361 17.4492H285.545Z"/><path d="M270.362 26.1968V11.1929H272.141V26.1968H270.362ZM270.006 7.6939V5.20312H272.497V7.6939H270.006Z"/><path d="M260.36 31.534C257.217 31.534 255.349 30.0217 254.696 28.5984L256.298 27.6792C256.95 29.2211 258.64 29.9031 260.39 29.9031C262.821 29.9031 264.689 28.8653 264.689 24.9809V24.4175C264.689 24.2396 264.6 24.121 264.452 24.121C264.304 24.121 264.244 24.2099 264.126 24.3285C263.118 25.4257 261.843 26.1077 260.182 26.1077C256.238 26.1077 253.955 22.9349 253.955 18.5167C253.955 14.0986 256.238 10.9258 260.182 10.9258C261.872 10.9258 263.177 11.6671 264.215 12.7939C264.363 12.9718 264.452 13.0311 264.571 13.0311C264.719 13.0311 264.808 12.9125 264.808 12.7346V11.1926H266.468V24.9809C266.468 29.4583 264.452 31.534 260.36 31.534ZM260.39 24.4768C263.295 24.4768 264.867 22.3418 264.867 18.4574C264.867 14.9585 263.444 12.5566 260.39 12.5566C257.306 12.5566 255.853 15.0178 255.853 18.5167C255.853 22.0157 257.306 24.4768 260.39 24.4768Z"/><path d="M245.411 26.4635C241.764 26.4635 239.154 23.9134 239.154 18.6946C239.154 13.6834 241.615 10.9258 245.5 10.9258C249.206 10.9258 251.519 13.3869 251.519 18.3388V19.0208H240.993C241.022 22.0453 242.149 24.8623 245.441 24.8623C247.931 24.8623 249.177 23.7355 249.414 22.0453H251.252C251.045 24.9216 248.643 26.4635 245.411 26.4635ZM249.236 17.4492C249.444 17.4492 249.621 17.3306 249.621 17.0341C249.621 14.2172 248.05 12.527 245.5 12.527C242.802 12.527 241.349 14.2765 241.052 17.4492H249.236Z"/><path d="M235.559 26.4591C232.802 26.4591 231.823 24.6799 231.823 22.3374V12.8191H229.955V11.3661H230.133C231.527 11.3661 232.06 10.9807 232.06 9.52771V7.21484H233.602V11.1882H237.931V12.8191H233.602V22.0706C233.602 23.82 234.195 24.8282 235.797 24.8282C236.449 24.8282 237.22 24.6503 237.665 24.4131L238.109 25.8957C237.546 26.1922 236.686 26.4591 235.559 26.4591Z"/><path d="M220.789 26.4635C218.12 26.4635 216.104 25.0698 216.104 22.2825C216.104 19.347 218.238 18.1016 221.144 17.5975L223.339 17.212C225.236 16.8859 225.8 16.53 225.8 15.4329C225.8 13.5945 224.288 12.527 222.034 12.527C220.047 12.527 218.594 13.1793 218.446 15.3439H216.608C216.726 12.2305 219.187 10.9258 222.034 10.9258C225.147 10.9258 227.609 12.3491 227.609 15.7294V26.1966H225.948V24.4471C225.948 24.2396 225.829 24.1506 225.711 24.1506C225.592 24.1506 225.503 24.2099 225.325 24.4175C224.525 25.3367 222.924 26.4635 220.789 26.4635ZM220.818 24.8623C223.546 24.8623 225.948 23.0831 225.948 20.1476V17.9237C225.563 18.3092 224.614 18.576 223.279 18.8132L221.619 19.1098C218.95 19.5842 217.942 20.622 217.942 22.3122C217.942 23.7058 218.861 24.8623 220.818 24.8623Z"/><path d="M207.705 26.1966V11.1926H209.366V13.2683C209.366 13.4462 209.455 13.5648 209.603 13.5648C209.751 13.5648 209.81 13.5352 209.959 13.298C210.789 11.9636 212.272 10.9258 213.962 10.9258C214.347 10.9258 214.703 10.9554 215.118 11.0444L215.088 12.9125C214.703 12.8532 213.962 12.7939 213.636 12.7939C211.234 12.7939 209.484 14.7213 209.484 17.4789V26.1966H207.705Z"/><path d="M202.7 26.463C199.942 26.463 198.964 24.6838 198.964 22.3413V12.823H197.096V11.37H197.274C198.667 11.37 199.201 10.9846 199.201 9.53161V7.21875H200.743V11.1921H205.072V12.823H200.743V22.0745C200.743 23.8239 201.336 24.8321 202.937 24.8321C203.59 24.8321 204.36 24.6542 204.805 24.417L205.25 25.8996C204.687 26.1961 203.827 26.463 202.7 26.463Z"/><path d="M188.107 26.5509C183.896 26.5509 180.635 24.6828 180.486 20.3832H182.384C182.503 23.6746 185.171 24.8607 188.166 24.8607C191.547 24.8607 193.474 23.4077 193.474 20.7687C193.474 18.8117 192.406 17.7738 190.242 17.1808L185.883 15.9651C182.799 15.1052 181.228 13.5632 181.228 10.6573C181.228 7.15839 184.193 5.02344 187.988 5.02344C192.021 5.02344 194.779 7.45491 194.897 11.1911H192.97C192.762 8.16656 190.627 6.71361 187.959 6.71361C185.201 6.71361 183.155 8.19621 183.155 10.6277C183.155 12.5254 184.104 13.5336 186.387 14.1859L190.746 15.4017C193.83 16.2616 195.401 17.8035 195.401 20.7391C195.401 24.3566 192.733 26.5509 188.107 26.5509Z"/><defs><clipPath><rect height="32" transform="translate(0.857422 0.0234375)" width="173"/></clipPath></defs></svg>