<svg xmlns="http://www.w3.org/2000/svg" height="20" viewBox="0 0 24 18" width="20" class="css-sbmc1b"><path d="M23.76 4.2s-.233-1.655-.955-2.381C21.89.862 20.869.858 20.4.8 17.044.558 12.005.558 12.005.558h-.01S6.956.558 3.6.8C3.131.858 2.11.862 1.195 1.82c-.722.726-.951 2.38-.951 2.38S0 6.146 0 8.087v1.818c0 1.941.24 3.886.24 3.886s.233 1.655.95 2.382c.915.956 2.115.923 2.65 1.026 1.92.183 8.16.24 8.16.24s5.044-.01 8.4-.25c.469-.055 1.49-.06 2.405-1.016.722-.727.956-2.382.956-2.382S24 11.85 24 9.904V8.086c0-1.94-.24-3.886-.24-3.886zM9.52 12.112V5.367l6.483 3.384-6.483 3.361z"/></svg>